<svg width="33" height="26" viewBox="0 0 33 26" fill="none" xmlns="http://www.w3.org/2000/svg">
<path d="M14.593 21.3208V7.36667C13.5958 6.8 12.5378 6.375 11.419 6.09167C10.3002 5.80833 9.16929 5.66667 8.02617 5.66667C7.15058 5.66667 6.28108 5.74931 5.41766 5.91458C4.55424 6.07986 3.72122 6.32778 2.91861 6.65833V20.6833C3.76987 20.4 4.61505 20.1875 5.45414 20.0458C6.29324 19.9042 7.15058 19.8333 8.02617 19.8333C9.16929 19.8333 10.282 19.9573 11.3643 20.2052C12.4466 20.4531 13.5229 20.825 14.593 21.3208ZM16.0523 25.5C14.8849 24.6028 13.6202 23.9062 12.2581 23.4104C10.8961 22.9146 9.48547 22.6667 8.02617 22.6667C7.00465 22.6667 6.00138 22.7965 5.01635 23.0562C4.03132 23.316 3.08886 23.6819 2.18895 24.1542C1.6782 24.4139 1.18568 24.4021 0.71141 24.1187C0.237137 23.8354 0 23.4222 0 22.8792V5.80833C0 5.54861 0.0668847 5.30069 0.200654 5.06458C0.334424 4.82847 0.535078 4.65139 0.802617 4.53333C1.92142 3.96667 3.08886 3.54167 4.30494 3.25833C5.52103 2.975 6.76144 2.83333 8.02617 2.83333C9.82597 2.83333 11.3582 3.03403 12.623 3.43542C13.8877 3.83681 15.2497 4.45069 16.709 5.27708C16.9766 5.41875 17.1772 5.58403 17.311 5.77292C17.4447 5.96181 17.5116 6.20972 17.5116 6.51667V21.3208C18.5818 20.825 19.658 20.4531 20.7403 20.2052C21.8227 19.9573 22.9354 19.8333 24.0785 19.8333C24.9541 19.8333 25.8114 19.9042 26.6505 20.0458C27.4896 20.1875 28.3348 20.4 29.1861 20.6833V3.64792C29.5509 3.76597 29.9096 3.89583 30.2623 4.0375C30.615 4.17917 30.9615 4.34444 31.302 4.53333C31.5696 4.65139 31.7702 4.82847 31.904 5.06458C32.0378 5.30069 32.1047 5.54861 32.1047 5.80833V22.8792C32.1047 23.4222 31.8675 23.8354 31.3933 24.1187C30.919 24.4021 30.4265 24.4139 29.9157 24.1542C29.0158 23.6819 28.0733 23.316 27.0883 23.0562C26.1033 22.7965 25.1 22.6667 24.0785 22.6667C22.6192 22.6667 21.2085 22.9146 19.8465 23.4104C18.4845 23.9062 17.2198 24.6028 16.0523 25.5ZM21.1599 17V1.41667L25.5378 0V15.5833L21.1599 17Z" fill="#FFCA42"/>
</svg>
